<?xml version="1.0" encoding="UTF-8"?>
<svg version="1.1" xmlns="http://www.w3.org/2000/svg" fill="currentColor" viewBox="0 0 1255 429">
<path d="M0 0 C0.74229355 -0.00029205 1.4845871 -0.00058411 2.24937439 -0.00088501 C4.67882381 0.00049736 7.10795833 0.01600639 9.53735352 0.03173828 C11.23128593 0.03547231 12.92522053 0.03831744 14.61915588 0.04031372 C19.05954031 0.0479195 23.49979216 0.0675415 27.94012451 0.08972168 C32.47837532 0.11024618 37.01664772 0.11932952 41.55493164 0.12939453 C50.44627505 0.1507905 59.3374856 0.18594749 68.22875977 0.22705078 C68.22875977 10.45705078 68.22875977 20.68705078 68.22875977 31.22705078 C63.31743164 31.24123047 58.40610352 31.25541016 53.34594727 31.27001953 C50.2286883 31.29008412 47.11157575 31.31160826 43.99438477 31.33837891 C39.04999081 31.38070304 34.1059681 31.41771045 29.16137695 31.42260742 C25.17341462 31.42689585 21.1862842 31.45540232 17.1985817 31.50048256 C15.67965674 31.5134404 14.16063214 31.51777127 12.64165878 31.51320457 C10.50816545 31.50828567 8.37709169 31.53443998 6.24389648 31.56762695 C5.03144257 31.57428879 3.81898865 31.58095062 2.5697937 31.58781433 C-2.31820364 32.52302964 -5.12262836 35.05388058 -8.14624023 39.03955078 C-9.61766807 44.18954821 -9.4784385 47.88842549 -7.02124023 52.53955078 C-3.74202303 56.45639355 -2.2447284 58.07657988 2.99658203 58.61181641 C4.51264617 58.63296046 6.02896593 58.63920349 7.54516602 58.63330078 C8.76271828 58.64955505 8.76271828 58.64955505 10.00486755 58.6661377 C12.60041183 58.70035816 15.19551991 58.71596509 17.79125977 58.72705078 C35.10126251 58.80204938 52.1525722 59.89789408 65.63891602 72.39501953 C70.45797726 77.94818839 74.1661938 84.56146603 77.22875977 91.22705078 C77.68766602 90.47939453 78.14657227 89.73173828 78.61938477 88.96142578 C79.23297852 87.97658203 79.84657227 86.99173828 80.47875977 85.97705078 C81.08204102 85.00251953 81.68532227 84.02798828 82.30688477 83.02392578 C84.08930418 80.42999834 85.92977604 78.3632746 88.22875977 76.22705078 C86.94463233 73.4031876 85.58666505 71.42608938 83.41625977 69.22705078 C75.70243251 60.20547394 74.22581484 50.28724605 74.74829102 38.79736328 C75.65716974 27.68477559 81.42461254 18.22878134 89.77172852 11.03564453 C95.53448026 6.62214073 101.30335813 3.41207055 108.22875977 1.22705078 C108.78827332 1.05013199 109.34778687 0.8732132 109.92425537 0.69093323 C113.07346828 0.05701619 116.07977219 0.10790919 119.29223633 0.11352539 C120.34649811 0.11330635 120.34649811 0.11330635 121.42205811 0.11308289 C123.7378654 0.11377779 126.05359158 0.1215504 128.36938477 0.12939453 C129.97792517 0.13126021 131.58646615 0.13268341 133.19500732 0.13368225 C137.42331518 0.13749562 141.65158855 0.14731583 145.87988281 0.15838623 C150.19669122 0.16862572 154.51350521 0.17318531 158.83032227 0.17822266 C167.29648567 0.18893916 175.76261445 0.20652641 184.22875977 0.22705078 C184.22875977 10.45705078 184.22875977 20.68705078 184.22875977 31.22705078 C177.40317383 31.26572266 177.40317383 31.26572266 170.43969727 31.30517578 C167.55031864 31.33035389 164.6610437 31.35669386 161.77172852 31.38720703 C157.18953102 31.43548793 152.60757364 31.47955255 148.02514648 31.49804688 C144.32901798 31.51323408 140.63351925 31.54771482 136.93767166 31.5953598 C135.53039664 31.61015259 134.12303169 31.6180906 132.71567917 31.61893463 C130.73864946 31.62131199 128.76170901 31.65072024 126.78491211 31.68115234 C125.09946793 31.69447601 125.09946793 31.69447601 123.37997437 31.70806885 C118.60108474 32.49511692 115.42459125 34.792053 112.35375977 38.47705078 C110.32393356 43.43884817 110.64825499 47.55003697 112.35375977 52.47705078 C114.58334302 55.74710622 116.57430923 57.75856338 120.22875977 59.22705078 C124.57699456 59.83864381 128.89765778 59.83199382 133.28344727 59.83642578 C134.54013214 59.85296204 135.79681702 59.86949829 137.09158325 59.88653564 C140.41585485 59.92679226 143.73936238 59.95017318 147.06378174 59.965271 C150.46268002 59.98489782 153.86130341 60.02664717 157.26000977 60.06689453 C163.91643472 60.14410581 170.57165893 60.18462184 177.22875977 60.22705078 C177.22875977 70.45705078 177.22875977 80.68705078 177.22875977 91.22705078 C171.30422852 91.23091797 171.30422852 91.23091797 165.26000977 91.23486328 C161.42071807 91.25769956 157.58163886 91.29071503 153.74243164 91.32470703 C151.0805451 91.3461608 148.42020989 91.35044164 145.75805664 91.34716797 C141.92463907 91.34430293 138.09315851 91.37970657 134.26000977 91.42236328 C133.07636841 91.41326935 131.89272705 91.40417542 130.67321777 91.39480591 C124.04839985 91.51049075 119.86017871 92.25011246 114.71594238 96.55221558 C111.22516661 100.48345717 110.86728394 103.95752309 110.95922852 109.03955078 C111.3192522 111.96148211 112.51502969 113.87067192 114.22875977 116.22705078 C114.22875977 116.88705078 114.22875977 117.54705078 114.22875977 118.22705078 C115.40438477 118.69111328 115.40438477 118.69111328 116.60375977 119.16455078 C119.22875977 120.22705078 119.22875977 120.22705078 121.22875977 121.22705078 C123.22973495 121.34732551 125.23462187 121.40442336 127.23901367 121.43237305 C128.50016998 121.45231827 129.76132629 121.47226349 131.06069946 121.49281311 C132.44223913 121.50979743 133.82378011 121.52667624 135.20532227 121.54345703 C136.61494559 121.56402638 138.02456274 121.58502285 139.43417358 121.60643005 C143.14623012 121.66165273 146.85834233 121.71106109 150.57049561 121.75927734 C155.02340798 121.8183178 159.47621848 121.88454684 163.92904663 121.94957733 C170.69555551 122.04758935 177.46212941 122.13644348 184.22875977 122.22705078 C184.22875977 132.45705078 184.22875977 142.68705078 184.22875977 153.22705078 C174.90073477 153.31777335 165.5730075 153.39100838 156.2446394 153.43429947 C151.91211107 153.45508729 147.57990279 153.4832417 143.24755859 153.52880859 C139.05890615 153.57258353 134.87055965 153.59625393 130.68169594 153.60655975 C129.09144596 153.61389482 127.50121086 153.62821703 125.91109276 153.64997101 C110.81639314 153.84808033 98.40719701 150.62738521 86.97094727 140.16064453 C81.92214562 134.79509297 78.47638258 128.80840762 75.22875977 122.22705078 C74.81625977 123.14486328 74.40375977 124.06267578 73.97875977 125.00830078 C67.57172208 138.83272397 59.88288677 145.03792474 46.25170898 151.50610352 C41.09935077 153.3423229 35.79517169 153.36804528 30.38745117 153.34057617 C29.24496918 153.34079521 29.24496918 153.34079521 28.07940674 153.34101868 C25.57968222 153.34032596 23.08003365 153.33256377 20.58032227 153.32470703 C18.84011882 153.32284057 17.09991485 153.32141774 15.35971069 153.32041931 C10.79277073 153.31661209 6.22586288 153.3067972 1.65893555 153.29571533 C-3.00658738 153.28546255 -7.67211552 153.28091342 -12.33764648 153.27587891 C-21.48219406 153.26517325 -30.62670945 153.24759106 -39.77124023 153.22705078 C-39.77124023 142.99705078 -39.77124023 132.76705078 -39.77124023 122.22705078 C-34.71553711 122.20126953 -29.65983398 122.17548828 -24.45092773 122.14892578 C-21.24254411 122.12375062 -18.03425413 122.09741278 -14.82592773 122.06689453 C-9.73673175 122.01859556 -4.6477526 121.97453757 0.44165039 121.95605469 C4.54623209 121.94087843 8.65024546 121.90641637 12.75457382 121.85874176 C14.31815518 121.84393783 15.88181769 121.83601033 17.4454689 121.83516693 C19.64093417 121.83279238 21.83483494 121.80567762 24.0300293 121.77294922 C25.278013 121.76406677 26.5259967 121.75518433 27.8117981 121.74603271 C31.87634721 121.12869259 34.03997297 119.778124 37.22875977 117.22705078 C40.53030352 112.49483807 41.1248455 107.83513794 40.22875977 102.22705078 C37.82786689 97.33292299 34.96708071 94.83704709 30.22875977 92.22705078 C27.28701317 91.86895978 24.7180335 91.71461932 21.78735352 91.75830078 C20.98322525 91.75125122 20.17909698 91.74420166 19.3506012 91.73693848 C15.93863763 91.70771024 12.52725891 91.72391958 9.11523438 91.73632812 C-7.10391965 91.75198519 -21.43433784 89.83247777 -33.86889648 78.27783203 C-37.79733415 74.03245035 -40.61997345 69.58529859 -42.77124023 64.22705078 C-43.21983398 63.15583984 -43.21983398 63.15583984 -43.67749023 62.06298828 C-47.96512785 50.19258413 -46.85264506 36.63766102 -41.77124023 25.22705078 C-34.91559564 12.74125247 -24.92085589 5.56648106 -11.58360291 1.17825317 C-7.63797968 0.19380165 -4.03188471 -0.04229312 0 0 Z " fill="inherit" transform="translate(498.771240234375,136.77294921875)"/>
<path d="M0 0 C10.42936247 6.5166474 17.48407646 15.93522444 21.3710022 27.61585999 C22.01142514 30.98355861 21.96537275 34.33257999 21.97021484 37.74780273 C21.97529556 38.53039459 21.98037628 39.31298645 21.98561096 40.11929321 C21.99629555 41.81567206 22.0049232 43.51206483 22.01173019 45.20846367 C22.02354009 47.89442638 22.04299729 50.58022982 22.06484985 53.26612854 C22.12640314 60.90173038 22.18053512 68.53731429 22.21386719 76.1730957 C22.2348146 80.84625923 22.27011479 85.51912943 22.31462479 90.19212532 C22.32878042 91.9714621 22.33750624 93.75085075 22.34067917 95.53024101 C22.34558927 98.01974062 22.368748 100.50846146 22.39599609 102.99780273 C22.39298996 103.730952 22.38998383 104.46410126 22.3868866 105.21946716 C22.45850083 109.62645688 23.0857497 112.44383083 25.8125 115.9375 C30.06270662 118.77097108 33.82313257 118.46353554 38.8125 117.9375 C42.49873011 116.32477433 43.56605 115.307175 45.8125 111.9375 C46.00459831 109.43854399 46.08243675 107.05010712 46.06787109 104.55126953 C46.07149155 103.80118118 46.075112 103.05109283 46.07884216 102.27827454 C46.08573744 100.64792217 46.08824135 99.01754672 46.08689499 97.38718033 C46.08592829 94.79563163 46.09889337 92.20449616 46.11587524 89.61300659 C46.16207255 82.24399119 46.18670397 74.87501454 46.19335938 67.50585938 C46.19841426 62.99587219 46.22287439 58.48630972 46.25868607 53.97646713 C46.26840339 52.26792849 46.2708607 50.55933077 46.26551437 48.85077286 C46.22127085 33.99977323 48.03511348 21.7710751 57.8125 9.9375 C58.52792969 9.00164062 58.52792969 9.00164062 59.2578125 8.046875 C64.91645053 1.46981928 77.20804076 -5.49557685 85.87451172 -6.23950195 C102.87518174 -6.67950692 116.35751637 -5.54492701 129.5 6.375 C130.263125 7.220625 131.02625 8.06625 131.8125 8.9375 C132.29332031 9.42605469 132.77414062 9.91460937 133.26953125 10.41796875 C140.12615483 17.72591439 143.94351111 26.96615636 143.93275452 36.98054504 C143.93481651 38.46753906 143.93481651 38.46753906 143.93692017 39.98457336 C143.93332489 41.06063339 143.92972961 42.13669342 143.92602539 43.24536133 C143.92617142 44.38725922 143.92631744 45.5291571 143.9264679 46.70565796 C143.92577168 50.47696843 143.91799285 54.24822941 143.91015625 58.01953125 C143.90829104 60.63555372 143.90686762 63.25157654 143.90586853 65.86759949 C143.90276356 72.04752778 143.89456141 78.22743833 143.88451904 84.40735883 C143.873332 91.44482329 143.86784093 98.48228862 143.86282361 105.51975977 C143.8523781 119.99235029 143.83404299 134.46492162 143.8125 148.9375 C131.9325 148.9375 120.0525 148.9375 107.8125 148.9375 C107.8031543 145.48522949 107.79380859 142.03295898 107.78417969 138.47607422 C107.75041976 127.07259895 107.69507716 115.66928538 107.62859726 104.26595879 C107.58881586 97.35178115 107.55641891 90.43771718 107.54150391 83.5234375 C107.52709047 76.85134145 107.49196925 70.17964849 107.44419098 63.50769424 C107.4293483 60.96163112 107.42145734 58.41551772 107.42061615 55.86941147 C107.41825356 52.30432276 107.39122854 48.74021317 107.35839844 45.17529297 C107.3634288 44.12152969 107.36845917 43.06776642 107.37364197 41.98207092 C107.28855258 36.01371097 106.82694657 32.46891336 102.8125 27.9375 C98.85853037 25.96051519 94.11130647 26.36680708 89.8125 26.9375 C86.91566132 29.1390974 85.41952769 30.72344462 83.8125 33.9375 C83.70594428 36.38646755 83.65835219 38.80819226 83.65478516 41.2578125 C83.64970444 42.0125737 83.64462372 42.7673349 83.63938904 43.54496765 C83.62867382 45.18789503 83.62005817 46.83083711 83.61326981 48.4737854 C83.60147815 51.08115224 83.58202056 53.68835364 83.56015015 56.2956543 C83.49857221 63.71055515 83.44465739 71.12544252 83.41113281 78.54052734 C83.39007866 83.07524905 83.35468099 87.60967461 83.31037521 92.14422607 C83.2962895 93.86639903 83.2875097 95.58862445 83.28432083 97.31085205 C83.2520484 113.08386519 80.93436361 126.05835015 69.875 138.0234375 C57.58949187 149.42476133 43.2015312 151.93524289 27.0078125 151.37890625 C15.36237525 150.62994316 4.85127142 144.40312845 -3.06640625 135.92578125 C-12.62838847 123.72766358 -14.62720476 110.60950193 -14.56762505 95.4820137 C-14.5584098 92.92553268 -14.56885212 90.36976868 -14.58424377 87.81332397 C-14.62408145 80.55410649 -14.62553699 73.29495331 -14.62329102 66.03564453 C-14.62323992 61.57484835 -14.64238954 57.11444695 -14.67262459 52.653759 C-14.68342726 50.14030014 -14.67134106 47.6276004 -14.65879822 45.11416626 C-14.66770095 43.57301077 -14.67777475 42.03186144 -14.68920898 40.49072266 C-14.67946548 39.79662292 -14.66972198 39.10252319 -14.65968323 38.38739014 C-14.72981251 33.64772724 -15.84553289 31.26788238 -19.1875 27.9375 C-22.86928592 25.90282883 -26.02018632 25.34216947 -30.1875 25.9375 C-33.91426392 28.51756733 -36.51108522 30.71700579 -38.1875 34.9375 C-38.49505639 37.24876949 -38.49505639 37.24876949 -38.4659729 39.74639893 C-38.47713638 40.71111115 -38.48829987 41.67582336 -38.49980164 42.66976929 C-38.50196182 43.72137238 -38.50412201 44.77297546 -38.50634766 45.85644531 C-38.52141609 47.52518204 -38.52141609 47.52518204 -38.53678894 49.22763062 C-38.5676942 52.90695679 -38.58467671 56.58620996 -38.6015625 60.265625 C-38.62026821 62.81582267 -38.63984117 65.36601411 -38.6602478 67.91619873 C-38.70638457 73.94383874 -38.74377015 79.97147167 -38.77692068 85.999192 C-38.81515508 92.86257391 -38.86456176 99.72586119 -38.91490483 106.5891633 C-39.0181974 120.70521245 -39.10599162 134.82130912 -39.1875 148.9375 C-50.7375 148.9375 -62.2875 148.9375 -74.1875 148.9375 C-74.30066198 133.49872358 -74.39264324 118.06015464 -74.44656086 102.62107468 C-74.47226875 95.45133291 -74.50727568 88.28186841 -74.56469727 81.11230469 C-74.61476131 74.85837328 -74.64684482 68.60464281 -74.65794247 62.35051656 C-74.66442286 59.04331624 -74.6821768 55.73681964 -74.71615028 52.42977142 C-74.752684 48.7246507 -74.75743491 45.02070283 -74.75512695 41.31542969 C-74.77310333 40.23648438 -74.79107971 39.15753906 -74.80960083 38.04589844 C-74.72690702 25.69962166 -69.65338431 15.58990021 -61.15625 6.84765625 C-56.02902715 2.00026423 -50.71118332 -1.38664897 -44.1875 -4.0625 C-43.29675781 -4.42988281 -42.40601562 -4.79726562 -41.48828125 -5.17578125 C-28.01799373 -8.79442654 -12.12962959 -6.45290207 0 0 Z " fill="inherit" transform="translate(170.1875,141.0625)"/>
<path d="M0 0 C12.21 0 24.42 0 37 0 C37.00410889 3.02704102 37.00821777 6.05408203 37.01245117 9.17285156 C37.02969754 19.20727054 37.07428092 29.2414365 37.13209057 39.27569962 C37.16628832 45.3557243 37.19145938 51.43549961 37.19555664 57.515625 C37.19985496 63.39029863 37.22844547 69.26441042 37.27343178 75.13890839 C37.28635771 77.37299062 37.29073199 79.60714025 37.28615379 81.84125519 C36.79560921 100.10679021 36.79560921 100.10679021 44.75505066 116.00006104 C50.62584283 121.6624322 57.36661778 123.57186779 65.3125 123.5 C66.05798096 123.49355469 66.80346191 123.48710937 67.5715332 123.48046875 C74.91850672 123.23798911 80.5388988 121.46849672 85.828125 116.16796875 C91.91763392 108.67432549 93.44695734 101.12908982 93.43237305 91.72851562 C93.4425647 90.73248322 93.45275635 89.73645081 93.46325684 88.7102356 C93.4932732 85.44218233 93.50263554 82.17442274 93.51171875 78.90625 C93.52857382 76.63080886 93.54672518 74.35537699 93.56611633 72.07995605 C93.61353224 66.10911962 93.64339614 60.13832076 93.66955566 54.1673584 C93.69940353 48.06722597 93.74591938 41.96722288 93.79101562 35.8671875 C93.87695326 23.91151126 93.94279952 11.9558483 94 0 C106.21 0 118.42 0 131 0 C131.04537521 12.12739814 131.08198733 24.25473892 131.10362434 36.3822031 C131.11401453 42.01484419 131.12808564 47.64742366 131.15087891 53.2800293 C131.17277853 58.7265425 131.18460436 64.17299683 131.18975449 69.6195507 C131.19341975 71.68652204 131.20057607 73.75349055 131.21146011 75.82043648 C131.32742857 98.7787262 129.99687716 120.52841771 113.375 138.1875 C97.1297906 153.70204031 78.61754187 155.58176108 57.19921875 155.34375 C48.98925237 155.08973531 42.42378926 153.65434588 35 150 C33.98164063 149.51917969 32.96328125 149.03835938 31.9140625 148.54296875 C18.25860134 141.60540872 8.87818832 130.58401377 4 116 C3.67740204 115.22928162 3.35480408 114.45856323 3.02243042 113.66448975 C-1.48463558 101.91891673 -0.25716944 88.52581416 -0.1953125 76.171875 C-0.19157633 73.9694227 -0.18873222 71.76696872 -0.18673706 69.56451416 C-0.17914815 63.80409044 -0.15954099 58.04376965 -0.1373291 52.28338623 C-0.11676787 46.39076123 -0.10771348 40.49811939 -0.09765625 34.60546875 C-0.07629012 23.0702603 -0.04114724 11.53515487 0 0 Z " fill="inherit" transform="translate(320,137)"/>
<path d="M0 0 C5.0920759 3.31169429 9.73088734 8.38414587 11.15625 14.40234375 C11.15625 16.38234375 11.15625 18.36234375 11.15625 20.40234375 C6.20625 20.40234375 1.25625 20.40234375 -3.84375 20.40234375 C-4.50375 18.09234375 -5.16375 15.78234375 -5.84375 13.40234375 C-9.78187377 10.62775655 -13.07473038 9.70686172 -17.84375 10.40234375 C-21.06326627 12.07401566 -23.24352222 13.2975177 -24.99609375 16.5234375 C-26.10423522 20.2870332 -26.17324134 23.88972414 -26.15625 27.77734375 C-26.17236328 28.50695312 -26.18847656 29.2365625 -26.20507812 29.98828125 C-26.21033619 35.87731699 -25.1695651 40.82733417 -21.09375 45.33984375 C-16.72690652 47.40196428 -12.99256136 46.7925061 -8.53125 45.27734375 C-5.15196975 43.31733978 -5.15196975 43.31733978 -3.84375 37.40234375 C1.10625 37.40234375 6.05625 37.40234375 11.15625 37.40234375 C11.81625 35.42234375 12.47625 33.44234375 13.15625 31.40234375 C17.56522039 25.95721245 23.23794412 22.42587393 30.15625 21.40234375 C35.82326191 21.09601878 41.48697364 21.22660269 47.15625 21.40234375 C47.02992188 20.12230469 46.90359375 18.84226563 46.7734375 17.5234375 C46.70237793 16.80341553 46.63131836 16.08339355 46.55810547 15.34155273 C46.29460281 13.19951215 46.29460281 13.19951215 44.28125 11.46484375 C40.12126918 9.38485334 36.77544615 9.07240117 32.15625 9.40234375 C29.08508653 11.44978606 29.09798927 12.63538665 28.15625 16.40234375 C22.87625 16.40234375 17.59625 16.40234375 12.15625 16.40234375 C13.21493046 8.99158055 14.20076626 5.71533103 20.03125 1.15234375 C28.69466585 -3.69916913 39.71661717 -4.40301014 49.27734375 -1.72265625 C54.72536756 0.79819495 58.90271293 4.33595023 62.15625 9.40234375 C63.46725505 13.3353589 63.37123457 17.13095701 63.4375 21.234375 C63.45590942 22.10374191 63.47431885 22.97310883 63.49328613 23.86882019 C63.55202623 26.65075933 63.60481451 29.43276055 63.65625 32.21484375 C63.72416447 35.86730952 63.79791498 39.51959263 63.875 43.171875 C63.88857544 44.0064473 63.90215088 44.84101959 63.9161377 45.70088196 C64.00770103 50.03157949 64.30712631 54.13738798 65.15625 58.40234375 C62.71756832 58.51032965 60.28365867 58.58960964 57.84375 58.65234375 C57.15345703 58.68585938 56.46316406 58.719375 55.75195312 58.75390625 C53.73046875 58.79296875 53.73046875 58.79296875 50.15625 58.40234375 C48.17578125 56.38671875 48.17578125 56.38671875 47.15625 54.40234375 C46.24875 55.04171875 45.34125 55.68109375 44.40625 56.33984375 C38.38933113 60.15827303 32.14503766 60.03931926 25.15625 59.40234375 C19.1818913 57.69119355 15.68657729 54.38633521 12.15625 49.40234375 C11.47073976 48.07859984 10.79963097 46.74706794 10.15625 45.40234375 C9.61097656 46.19898438 9.61097656 46.19898438 9.0546875 47.01171875 C4.86107525 52.9042816 0.64254963 57.31424826 -6.671875 59.078125 C-16.0557311 60.47895244 -23.99842287 60.06534397 -31.84375 54.40234375 C-38.92593221 48.38248888 -42.21100953 40.92986901 -43.2578125 31.78515625 C-43.68284416 20.84618344 -41.21282252 11.67008365 -33.84375 3.40234375 C-31.80859375 1.85546875 -31.80859375 1.85546875 -29.78125 0.65234375 C-29.10964844 0.245 -28.43804688 -0.16234375 -27.74609375 -0.58203125 C-19.88727504 -4.77770448 -7.87672472 -3.68893274 0 0 Z " fill="inherit" transform="translate(877.84375,228.59765625)"/>
<path d="M0 0 C6.93 0 13.86 0 21 0 C20.24951838 3.75240812 19.40471202 6.98770239 18.16845703 10.56982422 C17.78873245 11.67518524 17.40900787 12.78054626 17.01777649 13.91940308 C16.60198837 15.11904694 16.18620026 16.3186908 15.7578125 17.5546875 C15.31732465 18.83300399 14.87712047 20.11141827 14.43717957 21.3899231 C13.25015054 24.83688773 12.05914398 28.28246574 10.8673439 31.7277832 C9.62575226 35.31906537 8.38765577 38.91155211 7.14916992 42.50390625 C5.11141084 48.41313919 3.07138726 54.32158595 1.02978516 60.22949219 C-1.62127222 67.90120769 -4.26707449 75.57472562 -6.91125488 83.24881363 C-8.42452966 87.64012465 -9.93896469 92.03103554 -11.45343018 96.42193604 C-12.27179597 98.79470709 -13.08995414 101.16754976 -13.90789795 103.54046631 C-15.04555484 106.83986428 -16.18466331 110.13875736 -17.32421875 113.4375 C-17.81967949 114.87550461 -17.81967949 114.87550461 -18.32514954 116.34255981 C-18.63510361 117.23885101 -18.94505768 118.13514221 -19.2644043 119.05859375 C-19.52891891 119.82486084 -19.79343353 120.59112793 -20.06596375 121.38061523 C-21.33384002 124.93621148 -22.67454854 128.46546278 -24 132 C-30.93 132 -37.86 132 -45 132 C-44.31004382 127.17030675 -43.71039244 123.65030352 -42.16845703 119.203125 C-41.59887016 117.54532516 -41.59887016 117.54532516 -41.01777649 115.85403442 C-40.60198837 114.66470306 -40.18620026 113.4753717 -39.7578125 112.25 C-39.31704679 110.97454663 -38.87685008 109.69889651 -38.43717957 108.42306519 C-37.25289056 104.99155902 -36.06091414 101.56277047 -34.8673439 98.13448334 C-33.62374375 94.5587231 -32.38673085 90.98068593 -31.14916992 87.40283203 C-29.62486054 82.99746725 -28.09967928 78.5924103 -26.57115173 74.18850708 C-23.39288832 65.03110578 -20.23190197 55.86798813 -17.08874512 46.6984787 C-15.5766092 42.28839758 -14.06129397 37.87940749 -12.54656982 33.47021484 C-11.72723567 31.08324916 -10.90906978 28.69588213 -10.09210205 26.30810547 C-8.95725147 22.99310266 -7.81716285 19.67994628 -6.67578125 16.3671875 C-6.34547409 15.39820526 -6.01516693 14.42922302 -5.67485046 13.43087769 C-5.36489639 12.53442535 -5.05494232 11.63797302 -4.7355957 10.71435547 C-4.47108109 9.94364716 -4.20656647 9.17293884 -3.93403625 8.37887573 C-2.80636581 5.50683747 -1.37987278 2.75974556 0 0 Z " fill="inherit" transform="translate(829,187)"/>
<path d="M0 0 C10.1248992 3.3749664 10.1248992 3.3749664 14.37353516 5.08129883 C15.3254776 5.46212112 16.27742004 5.84294342 17.25820923 6.23530579 C18.25839081 6.63847519 19.25857239 7.04164459 20.2890625 7.45703125 C21.88130142 8.09520027 21.88130142 8.09520027 23.50570679 8.7462616 C26.87979169 10.09922949 30.25242048 11.45578457 33.625 12.8125 C35.86578855 13.71182993 38.10667317 14.61092055 40.34765625 15.50976562 C44.6388615 17.23130514 48.92954743 18.95412764 53.21972656 20.67822266 C60.14328811 23.46017051 67.07116616 26.23121237 74 29 C74 35.6 74 42.2 74 49 C56.098691 56.57971478 38.14294471 64.01412859 20.125 71.3125 C18.7069809 71.88784988 18.7069809 71.88784988 17.26031494 72.474823 C14.57280757 73.56469972 11.88427415 74.65199823 9.1953125 75.73828125 C7.9724353 76.23423294 7.9724353 76.23423294 6.72485352 76.74020386 C1.11545963 79 1.11545963 79 0 79 C0 71.41 0 63.82 0 56 C16.5 50.39 33 44.78 50 39 C28.69470832 31.49264122 28.69470832 31.49264122 7.08984375 24.9375 C4 24 4 24 0 22 C0 14.74 0 7.48 0 0 Z " fill="inherit" transform="translate(1119,217)"/>
<path d="M0 0 C0 7.59 0 15.18 0 23 C-16.5 28.61 -33 34.22 -50 40 C-33.42965429 46.06001215 -16.83187585 51.70998187 0 57 C0 64.59 0 72.18 0 80 C-10.12458688 76.62513771 -10.12458688 76.62513771 -14.15820312 74.93457031 C-15.06364868 74.55697571 -15.96909424 74.1793811 -16.90197754 73.79034424 C-17.85213745 73.39031189 -18.80229736 72.99027954 -19.78125 72.578125 C-20.79360718 72.15505066 -21.80596436 71.73197632 -22.84899902 71.29608154 C-26.067278 69.95041892 -29.28369197 68.60036572 -32.5 67.25 C-35.67909589 65.91867487 -38.8585743 64.58826645 -42.03808594 63.25793457 C-44.10270278 62.39398651 -46.16715824 61.52965268 -48.23144531 60.66491699 C-56.80658424 57.07444263 -65.39936794 53.52895889 -74 50 C-74 43.73 -74 37.46 -74 31 C-67.28529935 27.5632739 -60.54032826 24.45108288 -53.55859375 21.6015625 C-52.10876854 21.0044899 -52.10876854 21.0044899 -50.62965393 20.39535522 C-47.5670415 19.13503523 -44.5023335 17.87990772 -41.4375 16.625 C-39.41066454 15.79201393 -37.38397076 14.95868304 -35.35742188 14.125 C-31.42276401 12.50686293 -27.48698583 10.89149975 -23.55029297 9.27832031 C-19.9578478 7.80548405 -16.36826757 6.32605037 -12.78173828 4.83886719 C-11.98590836 4.50930023 -11.19007843 4.17973328 -10.37013245 3.84017944 C-8.89259599 3.22787025 -7.41562451 2.61419533 -5.9393158 1.99893188 C-1.11128191 0 -1.11128191 0 0 0 Z " fill="inherit" transform="translate(788,217)"/>
<path d="M0 0 C4.25378722 3.75543558 7.58027679 8.10760606 8.20620728 13.91230774 C8.31020362 16.2122798 8.35494546 18.50639388 8.37890625 20.80859375 C8.39590073 21.65293472 8.4128952 22.4972757 8.43040466 23.36720276 C8.48335611 26.05722639 8.52372708 28.74723767 8.5625 31.4375 C8.60659812 34.12411179 8.653469 36.81061173 8.70530701 39.49708557 C8.73695988 41.16540582 8.76394085 42.83382335 8.78553772 44.50230408 C8.79902756 45.26652176 8.8125174 46.03073944 8.82641602 46.81811523 C8.83592789 47.48254135 8.84543976 48.14696747 8.85523987 48.83152771 C9.0383754 51.57485431 9.54799607 54.28797641 10 57 C4.72 57 -0.56 57 -6 57 C-6.66 55.68 -7.32 54.36 -8 53 C-9.093125 53.639375 -10.18625 54.27875 -11.3125 54.9375 C-17.38850698 58.49139088 -23.07343411 58.62409413 -30 58 C-35.97852637 56.29045406 -39.43997468 52.96245953 -43 48 C-45.22859311 43.54281378 -44.48553839 37.83804323 -44 33 C-42.22426771 27.808701 -38.65601011 25.59228594 -33.9375 23.125 C-29.54820738 21.08252485 -25.74684825 19.86555418 -20.890625 19.90234375 C-20.13652344 19.90556641 -19.38242188 19.90878906 -18.60546875 19.91210938 C-17.82816406 19.92048828 -17.05085938 19.92886719 -16.25 19.9375 C-15.45722656 19.94201172 -14.66445312 19.94652344 -13.84765625 19.95117188 C-11.89840492 19.96291435 -9.94919262 19.98084854 -8 20 C-8.12632813 18.71996094 -8.25265625 17.43992188 -8.3828125 16.12109375 C-8.45387207 15.40107178 -8.52493164 14.6810498 -8.59814453 13.93920898 C-8.86164719 11.7971684 -8.86164719 11.7971684 -10.875 10.0625 C-15.03890955 7.98054523 -18.37399347 7.59420995 -23 8 C-25.90717073 10.21863029 -26.83981643 11.51944929 -28 15 C-32.95 15 -37.9 15 -43 15 C-42.67210667 8.66072889 -41.76332322 5.55622221 -37 1 C-26.90831009 -6.06644059 -10.5040752 -6.82964585 0 0 Z " fill="inherit" transform="translate(1094,230)"/>
<path d="M0 0 C5.30256432 3.05724408 8.23326586 7.18411858 10.03196716 13.05718994 C10.4806965 15.32771053 10.56143233 17.39962278 10.55493164 19.71386719 C10.55485611 20.6144989 10.55478058 21.51513062 10.55470276 22.4430542 C10.54954147 23.40672913 10.54438019 24.37040405 10.5390625 25.36328125 C10.53764755 26.35644348 10.5362326 27.34960571 10.53477478 28.37286377 C10.52918213 31.54157537 10.51663095 34.71021604 10.50390625 37.87890625 C10.4988903 40.02864481 10.49432756 42.17838448 10.49023438 44.328125 C10.4792151 49.59507937 10.46195548 54.86198079 10.44140625 60.12890625 C5.49140625 60.12890625 0.54140625 60.12890625 -4.55859375 60.12890625 C-4.58832275 58.25187012 -4.58832275 58.25187012 -4.61865234 56.33691406 C-4.69474668 51.69250425 -4.78345838 47.04840617 -4.87597656 42.40429688 C-4.91425044 40.39459387 -4.94910611 38.38482274 -4.98046875 36.375 C-5.02615366 33.48542945 -5.08414262 30.59632729 -5.14453125 27.70703125 C-5.15608246 26.80897766 -5.16763367 25.91092407 -5.17953491 24.98565674 C-5.1994046 24.14508728 -5.21927429 23.30451782 -5.23974609 22.43847656 C-5.25306976 21.70123352 -5.26639343 20.96399048 -5.28012085 20.20440674 C-5.70033885 17.07245867 -6.66194571 14.81863551 -9.18359375 12.87890625 C-14.18270926 11.30023819 -18.2346392 11.59932443 -22.99609375 13.50390625 C-25.64715947 14.8761629 -25.64715947 14.8761629 -26.55859375 17.12890625 C-26.67586034 18.51708298 -26.73540781 19.91039339 -26.76391602 21.30322266 C-26.78386124 22.16396393 -26.80380646 23.0247052 -26.82435608 23.91152954 C-26.84106857 24.84177948 -26.85778107 25.77202942 -26.875 26.73046875 C-26.8957811 27.68206879 -26.91656219 28.63366882 -26.93797302 29.61410522 C-27.00347508 32.66063057 -27.06235655 35.70724368 -27.12109375 38.75390625 C-27.16427834 40.81641541 -27.20789261 42.87891562 -27.25195312 44.94140625 C-27.35915715 50.00381579 -27.46042277 55.0663138 -27.55859375 60.12890625 C-32.50859375 60.12890625 -37.45859375 60.12890625 -42.55859375 60.12890625 C-42.55859375 40.32890625 -42.55859375 20.52890625 -42.55859375 0.12890625 C-37.93859375 0.12890625 -33.31859375 0.12890625 -28.55859375 0.12890625 C-28.55859375 2.43890625 -28.55859375 4.74890625 -28.55859375 7.12890625 C-27.94371094 6.63519531 -27.32882812 6.14148438 -26.6953125 5.6328125 C-25.88707031 4.99214844 -25.07882812 4.35148438 -24.24609375 3.69140625 C-23.44558594 3.05332031 -22.64507813 2.41523438 -21.8203125 1.7578125 C-16.00411885 -2.43105236 -6.61133611 -2.25088237 0 0 Z " fill="inherit" transform="translate(986.55859375,226.87109375)"/>
<path d="M0 0 C5.0920759 3.31169429 9.73088734 8.38414587 11.15625 14.40234375 C11.15625 16.38234375 11.15625 18.36234375 11.15625 20.40234375 C6.20625 20.40234375 1.25625 20.40234375 -3.84375 20.40234375 C-4.50375 18.09234375 -5.16375 15.78234375 -5.84375 13.40234375 C-9.78187377 10.62775655 -13.07473038 9.70686172 -17.84375 10.40234375 C-21.06326627 12.07401566 -23.24352222 13.2975177 -24.99609375 16.5234375 C-26.10423522 20.2870332 -26.17324134 23.88972414 -26.15625 27.77734375 C-26.17236328 28.50695312 -26.18847656 29.2365625 -26.20507812 29.98828125 C-26.21033619 35.87731699 -25.1695651 40.82733417 -21.09375 45.33984375 C-16.72690652 47.40196428 -12.99256136 46.7925061 -8.53125 45.27734375 C-5.15196975 43.31733978 -5.15196975 43.31733978 -3.84375 37.40234375 C1.10625 37.40234375 6.05625 37.40234375 11.15625 37.40234375 C11.15625 44.49597153 9.56577121 47.13811358 5.15625 52.40234375 C-1.62907266 58.81586791 -9.45475315 59.9511244 -18.55859375 59.7734375 C-25.58536704 58.97968784 -30.83971206 55.80109892 -35.71875 50.77734375 C-42.03964165 42.75294938 -43.57779049 34.19748147 -43.30078125 24.1328125 C-42.32442641 16.16342047 -39.1739174 9.38253157 -33.84375 3.40234375 C-31.80859375 1.85546875 -31.80859375 1.85546875 -29.78125 0.65234375 C-29.10964844 0.245 -28.43804688 -0.16234375 -27.74609375 -0.58203125 C-19.88727504 -4.77770448 -7.87672472 -3.68893274 0 0 Z " fill="none" transform="translate(877.84375,228.59765625)"/>
<path d="M0 0 C5.28 0 10.56 0 16 0 C20.92902828 14.59378962 25.83662951 29.16668504 30 44 C30.31130859 42.74123047 30.31130859 42.74123047 30.62890625 41.45703125 C32.88896992 32.63427224 35.57348496 24.02380636 38.53735352 15.41137695 C38.82666748 14.56534912 39.11598145 13.71932129 39.4140625 12.84765625 C39.6713916 12.10523682 39.9287207 11.36281738 40.19384766 10.59790039 C41.27688749 7.1077045 42.11368434 3.54526264 43 0 C48.61 0 54.22 0 60 0 C54.60046326 14.82000509 49.17927063 29.63132824 43.60293579 44.38589478 C43.11762243 45.67035868 42.63322693 46.95516975 42.14974976 48.24032593 C41.47507597 50.03238544 40.79623787 51.82287554 40.1171875 53.61328125 C39.53880127 55.14142456 39.53880127 55.14142456 38.94873047 56.70043945 C38 59 38 59 37 60 C34.46950598 60.07313567 31.96695163 60.09247527 29.4375 60.0625 C28.72658203 60.05798828 28.01566406 60.05347656 27.28320312 60.04882812 C25.52209987 60.03700864 23.76103964 60.01907263 22 60 C21.79812576 59.46510452 21.59625153 58.93020905 21.38825989 58.37910461 C19.26315271 52.7485645 17.13747118 47.11824146 15.01147461 41.48803711 C14.22096642 39.39434132 13.4305986 37.30059254 12.64038086 35.20678711 C11.49631183 32.17547456 10.35170844 29.14436419 9.20703125 26.11328125 C8.83836945 25.13610138 8.46970764 24.15892151 8.08987427 23.15213013 C5.69920436 16.82326838 3.27057077 10.51135202 0.78393555 4.21948242 C0 2 0 2 0 0 Z " fill="inherit" transform="translate(994,227)"/>
<path d="M0 0 C0.28781667 3.70963707 0.44259883 7.29923389 0 11 C-3.30941192 14.65777107 -5.93284134 15.93002238 -10.8125 16.25 C-15.03556642 16.21160849 -17.96186207 15.03813793 -21 12 C-21.58167462 7.67898857 -21.47084901 5.67060313 -18.9375 2.0625 C-13.84050677 -1.73234167 -6.03787609 -0.34567993 0 0 Z " fill="inherit" transform="translate(1086,260)"/>
<path d="M0 0 C1.05960938 0.00676758 1.05960938 0.00676758 2.140625 0.01367188 C3.88545275 0.02546125 5.630237 0.04339676 7.375 0.0625 C7.66281667 3.77213707 7.81759883 7.36173389 7.375 11.0625 C4.8218332 13.88442119 2.22690692 15.84056224 -1.61328125 16.30078125 C-5.63659488 16.42925681 -8.067607 16.35825955 -11.6875 14.4375 C-13.625 12.0625 -13.625 12.0625 -14.1875 9.125 C-13.50734836 5.42195217 -12.22628059 3.74028884 -9.625 1.0625 C-6.55966836 -0.47016582 -3.35745728 -0.04026471 0 0 Z " fill="inherit" transform="translate(917.625,259.9375)"/>
<path d="M0 0 C0.33 0 0.66 0 1 0 C1 19.8 1 39.6 1 60 C-2.08882265 55.36676602 -2.13580895 51.65263531 -2.09765625 46.26953125 C-2.0962413 45.51911057 -2.09482635 44.76868988 -2.09336853 43.99552917 C-2.0877756 41.6011454 -2.07522444 39.20685547 -2.0625 36.8125 C-2.05748408 35.18815239 -2.05292134 33.56380332 -2.04882812 31.93945312 C-2.03780848 27.95959931 -2.02054873 23.97981556 -2 20 C-1.67 20 -1.34 20 -1 20 C-0.67 13.4 -0.34 6.8 0 0 Z " fill="inherit" transform="translate(943,227)"/>
</svg>
